<svg xmlns="http://www.w3.org/2000/svg" version="1.1" xmlns:xlink="http://www.w3.org/1999/xlink" width="512" height="512" x="0" y="0" viewBox="0 0 512 512" style="enable-background:new 0 0 512 512" xml:space="preserve"><g><path d="M491.369 155.154c-2.376-5.54-6.789-9.802-12.424-12-5.68-2.214-11.869-2.06-17.432.435-11.124 4.991-16.254 18.215-11.435 29.479 10.962 25.616 16.651 52.845 16.911 80.931 1.073 115.55-91.995 211.09-207.464 212.973-74.555 1.209-142.706-35.772-182.363-98.942a7.5 7.5 0 0 0-12.703 7.976c20.3 32.336 48.66 59.214 82.013 77.727 34.447 19.121 73.627 28.891 113.298 28.238 123.682-2.017 223.368-104.347 222.22-228.11-.279-30.078-6.375-59.246-18.12-86.693-1.649-3.855.013-8.2 3.784-9.892a7.498 7.498 0 0 1 5.84-.146 7.29 7.29 0 0 1 4.09 3.939c12.747 29.713 19.279 61.309 19.414 93.91.268 64.41-24.723 125.124-70.367 170.958-45.638 45.825-106.235 71.064-170.632 71.063C123.111 497 15 388.887 15 256 15 123.112 123.112 15 256 15c19.858 0 39.602 2.421 58.68 7.195a7.5 7.5 0 0 0 3.641-14.551C298.053 2.572 277.085 0 256 0 187.62 0 123.333 26.629 74.98 74.98 26.629 123.333 0 187.62 0 256s26.629 132.667 74.98 181.019S187.619 512 255.999 512H256c68.41 0 132.79-26.809 181.26-75.48 48.479-48.682 75.022-113.177 74.738-181.605-.144-34.624-7.084-68.189-20.629-99.761z" fill="#000000" opacity="1" data-original="#000000"></path><path d="M347.136 32.833a240.79 240.79 0 0 1 56.104 32.375 7.498 7.498 0 0 0 10.16-.916l9.172-10.186c1.687-1.873 3.75-1.548 4.557-1.323.808.226 2.738 1.019 3.209 3.494l7.988 42.016a9.49 9.49 0 0 1-2.258 8.076 9.483 9.483 0 0 1-7.794 3.089l-42.622-3.553c-2.51-.209-3.5-2.046-3.81-2.826-.309-.78-.847-2.797.839-4.669l10.586-11.757a7.5 7.5 0 0 0-1.048-11c-38.968-29.509-86.778-45.75-136.201-45.651-122.909 0-223.976 99.017-225.986 222.229-.515 31.615 5.37 62.291 17.494 91.174a7.501 7.501 0 0 0 6.918 4.599 7.502 7.502 0 0 0 6.913-10.404c-11.315-26.957-16.809-55.597-16.327-85.124 1.875-115.04 96.226-207.475 210.99-207.475 42.542-.101 85.568 13.162 120.529 37.801l-5.016 5.569c-4.991 5.544-6.385 13.297-3.636 20.232 2.748 6.935 9.074 11.628 16.508 12.248l42.622 3.553c7.564.63 15.11-2.361 20.188-8 5.078-5.64 7.264-13.458 5.847-20.914l-7.988-42.017c-1.394-7.329-6.723-13.129-13.907-15.138-7.181-2.009-14.749.188-19.741 5.732l-4.58 5.086a255.67 255.67 0 0 0-54.031-30.206 7.5 7.5 0 0 0-9.781 4.103 7.5 7.5 0 0 0 4.102 9.783z" fill="#000000" opacity="1" data-original="#000000"></path><path d="M159.811 199.4a9.74 9.74 0 0 0-9.039-6.056h-.01a9.742 9.742 0 0 0-9.037 6.074l-.066.169-37.667 98.899a7.5 7.5 0 0 0 4.34 9.678c3.866 1.474 8.203-.469 9.678-4.339l7.542-19.801h50.167l7.464 19.779a7.503 7.503 0 0 0 7.018 4.854 7.5 7.5 0 0 0 7.015-10.15l-37.324-98.904-.081-.203zm-28.548 69.625 19.486-51.162 19.308 51.162zM391 208.344c4.143 0 7.5-3.358 7.5-7.5s-3.357-7.5-7.5-7.5h-42.268a7.5 7.5 0 0 0-7.5 7.5v100.312a7.5 7.5 0 0 0 7.5 7.5H391c4.143 0 7.5-3.358 7.5-7.5s-3.357-7.5-7.5-7.5h-34.768V258.5h31.651c4.143 0 7.5-3.358 7.5-7.5s-3.357-7.5-7.5-7.5h-31.651v-35.156zM266.223 208.344c8.548 0 16.793 2.518 23.845 7.281 3.433 2.319 8.095 1.416 10.413-2.017s1.416-8.095-2.017-10.413c-9.541-6.445-20.689-9.851-32.241-9.851-31.792 0-57.656 25.864-57.656 57.656s25.864 57.656 57.656 57.656c29.908 0 50.797-23.709 50.797-57.656a7.5 7.5 0 0 0-7.5-7.5h-30.008c-4.143 0-7.5 3.358-7.5 7.5s3.357 7.5 7.5 7.5h22.051c-2.16 17.575-12.229 35.156-35.34 35.156-23.521 0-42.656-19.136-42.656-42.656s19.135-42.656 42.656-42.656z" fill="#000000" opacity="1" data-original="#000000"></path></g></svg>