<?xml version="1.0" encoding="utf-8"?>
<!-- Svg Vector Icons : http://www.onlinewebfonts.com/icon -->
<!DOCTYPE svg PUBLIC "-//W3C//DTD SVG 1.1//EN" "http://www.w3.org/Graphics/SVG/1.1/DTD/svg11.dtd">
<svg version="1.1" xmlns="http://www.w3.org/2000/svg" xmlns:xlink="http://www.w3.org/1999/xlink" x="0px" y="0px" viewBox="0 0 256 256" enable-background="new 0 0 256 256" xml:space="preserve">
<metadata> Svg Vector Icons : http://www.onlinewebfonts.com/icon </metadata>
<g><g><path fill="#000000" d="M156.7,91.8c3.5,0,6.4-2.9,6.4-6.4v-51c0-10.5-8.6-19.1-19.1-19.1H29.1C18.6,15.3,10,23.8,10,34.4v153.1c0,9.5,6.9,19.9,15.6,23.6l65.8,28.2c2.3,1,4.6,1.5,6.8,1.5c2.7,0,5.3-0.7,7.5-2.2c4-2.6,6.3-7.3,6.3-12.9v-19.1h31.9c10.5,0,19.1-8.6,19.1-19.1v-51c0-3.5-2.9-6.4-6.4-6.4s-6.4,2.8-6.4,6.4v51c0,3.5-2.9,6.4-6.4,6.4h-31.9V72.6c0-9.5-6.9-19.9-15.6-23.6l-49-21h96.5c3.5,0,6.4,2.9,6.4,6.4v51C150.3,88.9,153.2,91.8,156.7,91.8L156.7,91.8z M91.4,60.7c4.1,1.8,7.8,7.4,7.8,11.9v153.1c0,1.3-0.4,2.1-0.6,2.2c-0.2,0.1-1,0.2-2.3-0.3l-65.8-28.2c-4.1-1.8-7.9-7.4-7.9-11.9V34.4c0-1,0.2-2,0.7-2.8L91.4,60.7z"/><path fill="#000000" d="M244.1,106.4l-38.3-38.3c-2.5-2.5-6.5-2.5-9,0c-2.5,2.5-2.5,6.5,0,9l27.4,27.4h-80.3c-3.5,0-6.4,2.9-6.4,6.4s2.9,6.4,6.4,6.4h80.3l-27.4,27.3c-2.5,2.5-2.5,6.5,0,9c1.3,1.3,2.9,1.9,4.5,1.9c1.6,0,3.3-0.6,4.5-1.9l38.3-38.3C246.6,112.9,246.6,108.9,244.1,106.4L244.1,106.4z"/></g></g>
</svg>