<svg xmlns="http://www.w3.org/2000/svg" version="1.1" xmlns:xlink="http://www.w3.org/1999/xlink" width="512" height="512" x="0" y="0" viewBox="0 0 128 128" style="enable-background:new 0 0 512 512" xml:space="preserve"><g><path d="M84.486 61.635A9.575 9.575 0 0 1 95.062 62.8a1.75 1.75 0 1 0 2.258-2.674 13.066 13.066 0 0 0-14.432-1.6 1.75 1.75 0 0 0 1.6 3.114zM72.567 65.06a1.75 1.75 0 1 0-.3-3.487 13.065 13.065 0 0 0-11.381 9.018 1.75 1.75 0 1 0 3.333 1.068 9.575 9.575 0 0 1 8.348-6.599zM98.344 72.464a1.752 1.752 0 0 0-1.544.136l-5.428 3.322a33.353 33.353 0 0 1-17.047 4.9l-6.363.068a1.75 1.75 0 0 0-1.664 2.233 17.242 17.242 0 0 0 16.524 12.47 17.242 17.242 0 0 0 16.57-21.981 1.752 1.752 0 0 0-1.048-1.148zM86.632 91.552A13.728 13.728 0 0 1 70.5 84.364l3.858-.041A36.857 36.857 0 0 0 93.2 78.909l3.284-2.009a13.741 13.741 0 0 1-9.852 14.652zM32.779 42.131a1.738 1.738 0 0 0 1.128-.413 9.572 9.572 0 0 1 10.576-1.16 1.75 1.75 0 0 0 1.6-3.114 13.065 13.065 0 0 0-14.432 1.6 1.751 1.751 0 0 0 1.13 3.088z" fill="#000000" opacity="1" data-original="#000000"></path><path d="m109.572 70.976-6.859-23.836a10.9 10.9 0 0 0-13.5-7.482L78.66 42.692a10.892 10.892 0 0 0-7.56-13.174l-32.319-9.28a10.9 10.9 0 0 0-13.5 7.468l-6.86 23.851a30.086 30.086 0 0 0 18.19 36.566 1.706 1.706 0 0 0 .3.085 30.17 30.17 0 0 0 19.174-2.6l.2.682a30.044 30.044 0 0 0 28.936 21.914 30.866 30.866 0 0 0 5.879-.568 1.746 1.746 0 0 0 .3-.086 30.11 30.11 0 0 0 18.172-36.574zM37.725 84.8a26.6 26.6 0 0 1-15.934-32.276l6.861-23.853a7.4 7.4 0 0 1 9.165-5.071l32.32 9.28a7.415 7.415 0 0 1 5.082 9.173l-.513 1.774-8.247 2.373a13.063 13.063 0 0 0-9.759-5.7 1.75 1.75 0 0 0-.3 3.487 9.615 9.615 0 0 1 6.45 3.253l-5.95 1.708a10.857 10.857 0 0 0-7.208 6.661 14.93 14.93 0 0 0-21.6 8.928 1.75 1.75 0 0 0 1.658 2.233l5.42.06a28.222 28.222 0 0 1 14.406 4.131l2.783 1.707 2.731 9.495A26.672 26.672 0 0 1 37.725 84.8zm11.693-22.357 1.515 5.268a31.712 31.712 0 0 0-15.724-4.381l-2.868-.03A11.428 11.428 0 0 1 49 59.293a10.76 10.76 0 0 0 .418 3.15zm40.856 41.788a26.586 26.586 0 0 1-30.633-18.906l-6.859-23.85a7.252 7.252 0 0 1-.242-2.84 7.372 7.372 0 0 1 5.324-6.324l32.321-9.29a7.447 7.447 0 0 1 2.058-.292 7.413 7.413 0 0 1 7.106 5.371l6.859 23.838a26.627 26.627 0 0 1-15.934 32.293z" fill="#000000" opacity="1" data-original="#000000"></path></g></svg>