<svg xmlns="http://www.w3.org/2000/svg" version="1.1" xmlns:xlink="http://www.w3.org/1999/xlink" width="512" height="512" x="0" y="0" viewBox="0 0 64 64" style="enable-background:new 0 0 512 512" xml:space="preserve"><g><path d="M14.34 16.75c-.24 0-.49-.09-.68-.27a.997.997 0 0 1-.05-1.41 26.16 26.16 0 0 1 17.51-8.3c.56-.02 1.03.38 1.06.93s-.38 1.03-.93 1.06c-6.19.4-11.93 3.12-16.18 7.67-.19.21-.46.32-.73.32zM14.17 51.1c-.27 0-.54-.11-.74-.32a26.24 26.24 0 0 1-6.9-17.76c0-.55.45-1 1-1s1 .45 1 1c0 6.09 2.26 11.92 6.37 16.41.37.41.34 1.04-.06 1.41-.18.17-.42.26-.67.26zM32.84 59.32c-.55 0-1-.45-1-1s.45-1 1-1c7.1 0 13.83-3.09 18.46-8.49a.999.999 0 1 1 1.52 1.3 26.295 26.295 0 0 1-19.98 9.19zM57.83 30.01c-.48 0-.91-.35-.99-.84-.83-5.24-3.43-10.15-7.31-13.82a.996.996 0 1 1 1.37-1.45c4.2 3.97 7.01 9.28 7.91 14.96a.99.99 0 0 1-.83 1.14c-.04 0-.1.01-.15.01zM28.46 61.88c-.55 0-1-.45-1-1 0-2.81-2.29-5.1-5.1-5.1s-5.1 2.29-5.1 5.1c0 .55-.45 1-1 1s-1-.45-1-1c0-3.92 3.19-7.1 7.1-7.1 3.92 0 7.1 3.19 7.1 7.1 0 .55-.45 1-1 1z" fill="#000000" opacity="1" data-original="#000000"></path><path d="M22.36 55.78c-2.49 0-4.51-2.03-4.51-4.51s2.03-4.51 4.51-4.51 4.51 2.03 4.51 4.51-2.02 4.51-4.51 4.51zm0-7.03c-1.39 0-2.51 1.13-2.51 2.51s1.13 2.51 2.51 2.51 2.51-1.13 2.51-2.51-1.13-2.51-2.51-2.51zM60.68 47.29c-.55 0-1-.45-1-1 0-2.81-2.29-5.1-5.1-5.1s-5.1 2.29-5.1 5.1c0 .55-.45 1-1 1s-1-.45-1-1c0-3.92 3.19-7.1 7.1-7.1s7.1 3.19 7.1 7.1c0 .56-.45 1-1 1z" fill="#000000" opacity="1" data-original="#000000"></path><path d="M54.58 41.19c-2.49 0-4.51-2.03-4.51-4.51s2.03-4.51 4.51-4.51 4.51 2.03 4.51 4.51-2.02 4.51-4.51 4.51zm0-7.03c-1.39 0-2.51 1.13-2.51 2.51s1.13 2.51 2.51 2.51 2.51-1.13 2.51-2.51-1.13-2.51-2.51-2.51zM46.24 17.25c-.55 0-1-.45-1-1 0-2.81-2.29-5.1-5.1-5.1s-5.1 2.29-5.1 5.1c0 .55-.45 1-1 1s-1-.45-1-1c0-3.92 3.19-7.1 7.1-7.1 3.92 0 7.1 3.19 7.1 7.1 0 .55-.45 1-1 1z" fill="#000000" opacity="1" data-original="#000000"></path><path d="M40.14 11.15c-2.49 0-4.51-2.03-4.51-4.51s2.03-4.51 4.51-4.51 4.51 2.03 4.51 4.51-2.02 4.51-4.51 4.51zm0-7.03c-1.39 0-2.51 1.13-2.51 2.51s1.13 2.51 2.51 2.51 2.51-1.13 2.51-2.51-1.12-2.51-2.51-2.51zM15.52 32.79c-.55 0-1-.45-1-1 0-2.81-2.29-5.1-5.1-5.1s-5.1 2.29-5.1 5.1c0 .55-.45 1-1 1s-1-.45-1-1c0-3.92 3.19-7.1 7.1-7.1 3.92 0 7.1 3.19 7.1 7.1 0 .55-.44 1-1 1z" fill="#000000" opacity="1" data-original="#000000"></path><path d="M9.42 26.69c-2.49 0-4.51-2.03-4.51-4.51s2.03-4.51 4.51-4.51 4.51 2.03 4.51 4.51-2.02 4.51-4.51 4.51zm0-7.03c-1.39 0-2.51 1.13-2.51 2.51s1.13 2.51 2.51 2.51 2.51-1.13 2.51-2.51-1.12-2.51-2.51-2.51zM40.35 41.26c-.55 0-1-.45-1-1 0-3.59-2.92-6.5-6.5-6.5s-6.5 2.92-6.5 6.5c0 .55-.45 1-1 1s-1-.45-1-1c0-4.69 3.81-8.5 8.5-8.5s8.5 3.81 8.5 8.5c0 .55-.45 1-1 1z" fill="#000000" opacity="1" data-original="#000000"></path><path d="M32.84 33.76c-2.93 0-5.32-2.39-5.32-5.32s2.39-5.32 5.32-5.32c2.94 0 5.32 2.39 5.32 5.32s-2.38 5.32-5.32 5.32zm0-8.65c-1.83 0-3.32 1.49-3.32 3.32s1.49 3.32 3.32 3.32 3.32-1.49 3.32-3.32-1.49-3.32-3.32-3.32z" fill="#000000" opacity="1" data-original="#000000"></path></g></svg>