<!-- icon666.com - MILLIONS vector ICONS FREE --><svg xmlns="http://www.w3.org/2000/svg" viewBox="0 0 100 99.88"><g id="Layer_2" data-name="Layer 2"><g id="Layer_1-2" data-name="Layer 1"><path d="M100,39.5a.8.8,0,0,0-.06-.3.54.54,0,0,0-.05-.11,1.27,1.27,0,0,0-.13-.19s0-.07-.09-.09a.1.1,0,0,0,0-.05L82.56,25.34v-14A3.59,3.59,0,0,0,79,7.79H58.37L50.7.29a1,1,0,0,0-1.4,0l-7.67,7.5H21a3.58,3.58,0,0,0-3.58,3.58v14L.38,38.76a.1.1,0,0,0,0,.05.26.26,0,0,0-.09.09,1.27,1.27,0,0,0-.13.19.54.54,0,0,0,0,.11.8.8,0,0,0-.06.3V98.88a1,1,0,0,0,.43.8h0a1.15,1.15,0,0,0,.27.14H.78a.79.79,0,0,0,.22,0H99a.79.79,0,0,0,.22,0h.08a1.15,1.15,0,0,0,.27-.14h0a1,1,0,0,0,.43-.8V39.5ZM2,41.65,17.8,54.77l21,17.14L2,97ZM95.74,97.87H4.26L44.43,70.45a9.86,9.86,0,0,1,11.14,0ZM61.41,72,98,41.65V97Zm36-32.47L82.56,51.87v-24ZM50,2.4l5.51,5.39h-11ZM21,9.79H79a1.58,1.58,0,0,1,1.58,1.58V53.53L59.69,70.85l-3-2a11.81,11.81,0,0,0-13.38,0l-2.83,1.93-21-17.21V11.37A1.58,1.58,0,0,1,21,9.79ZM17.44,51.87,2.6,39.55,17.44,27.88Z"></path><path d="M41.61,40.41,40,50a1,1,0,0,0,.39,1,1.06,1.06,0,0,0,.59.19,1,1,0,0,0,.47-.12L50,46.51,58.57,51A1,1,0,0,0,60,50l-1.63-9.55,6.93-6.76a1,1,0,0,0-.55-1.7l-9.59-1.4L50.9,21.87a1,1,0,0,0-1.8,0l-4.28,8.68L35.23,32a1,1,0,0,0-.55,1.7Zm4-7.95a1,1,0,0,0,.76-.55L50,24.57l3.62,7.34a1,1,0,0,0,.76.55l8.09,1.18-5.86,5.71a1,1,0,0,0-.28.88l1.38,8.07-7.24-3.81a1,1,0,0,0-.93,0L42.29,48.3l1.38-8.07a1,1,0,0,0-.28-.88l-5.87-5.71Z"></path></g></g></svg>