<?xml version="1.0" encoding="iso-8859-1"?>
<!-- Generator: Adobe Illustrator 23.0.2, SVG Export Plug-In . SVG Version: 6.00 Build 0)  -->
<svg version="1.1" id="_x39__Badge" xmlns="http://www.w3.org/2000/svg" xmlns:xlink="http://www.w3.org/1999/xlink" x="0px"
	 y="0px" viewBox="0 0 3872.983 3872.983" style="enable-background:new 0 0 3872.983 3872.983;" xml:space="preserve">
<g>
	<path d="M2721.904,1499.071c0-433.076-352.333-785.409-785.412-785.409s-785.412,352.333-785.412,785.409
		s352.333,785.409,785.412,785.409S2721.904,1932.147,2721.904,1499.071z M1267.725,1499.071
		c0-368.759,300.008-668.764,668.767-668.764s668.767,300.005,668.767,668.764s-300.008,668.764-668.767,668.764
		S1267.725,1867.83,1267.725,1499.071z"/>
	<path d="M2179.692,1966.705c8.532,4.485,17.85,6.698,27.134,6.698c12.092,0,24.126-3.756,34.287-11.138
		c17.958-13.049,26.957-35.164,23.204-57.044l-46.447-270.807l196.753-191.786c15.896-15.495,21.615-38.673,14.757-59.786
		c-6.863-21.114-25.112-36.5-47.08-39.692l-271.906-39.513l-121.6-246.387c-9.83-19.906-30.101-32.51-52.302-32.51
		s-42.472,12.604-52.302,32.51l-121.6,246.387l-271.906,39.513c-21.968,3.192-40.216,18.579-47.079,39.692
		c-6.857,21.113-1.139,44.292,14.757,59.786l196.753,191.786l-46.447,270.807c-3.753,21.879,5.246,43.995,23.204,57.044
		c17.964,13.051,41.777,14.763,61.421,4.44l243.2-127.857L2179.692,1966.705z M1743.612,1808.468l31.656-184.556
		c3.241-18.921-3.03-38.226-16.773-51.625l-134.091-130.699l185.305-26.929c18.995-2.76,35.415-14.692,43.913-31.904l82.87-167.914
		l82.87,167.914c8.498,17.212,24.918,29.144,43.913,31.904l185.305,26.929l-134.091,130.699
		c-13.743,13.399-20.014,32.704-16.773,51.625l31.656,184.556l-165.741-87.136c-8.498-4.465-17.816-6.698-27.139-6.698
		s-18.642,2.233-27.139,6.698L1743.612,1808.468z"/>
	<path d="M2547.029,2352.583c265.779-190.661,439.268-502.194,439.268-853.511c0-578.865-470.943-1049.805-1049.805-1049.805
		S886.686,920.206,886.686,1499.071c0,349.281,171.505,659.213,434.676,850.16l-405.196,772.28
		c-11.938,22.76-7.575,50.651,10.748,68.674c18.323,18.024,46.293,21.925,68.842,9.617l292.393-159.595l34.874,331.291
		c2.694,25.559,21.797,46.345,47.04,51.177c3.668,0.703,7.342,1.042,10.981,1.042c21.37,0,41.424-11.781,51.63-31.229
		l443.555-845.383c19.951,1.135,40.033,1.771,60.263,1.771c18.142,0,36.179-0.465,54.098-1.379l443.364,844.99
		c10.207,19.448,30.26,31.229,51.63,31.229c3.64,0,7.313-0.339,10.981-1.042c25.243-4.833,44.345-25.619,47.04-51.177
		l34.874-331.291l292.393,159.595c22.566,12.308,50.52,8.401,68.842-9.617c18.323-18.023,22.686-45.915,10.748-68.674
		L2547.029,2352.583z M1418.868,3167.745l-23.87-226.749c-2.045-19.393-13.641-36.483-30.91-45.542
		c-17.263-9.065-37.921-8.888-55.036,0.453l-200.091,109.215l310.858-592.477c101.488,57.623,213.44,98.859,332.267,120.002
		L1418.868,3167.745z M1003.331,1499.071c0-514.545,418.612-933.16,933.16-933.16s933.16,418.615,933.16,933.16
		c0,484.121-370.586,883.271-842.974,928.786c-4.887-0.208-9.826,0.251-14.72,1.312c-24.9,2.002-50.06,3.062-75.466,3.062
		C1421.944,2432.232,1003.331,2013.617,1003.331,1499.071z M2557.575,2895.907c-17.115-9.341-37.773-9.506-55.036-0.453
		c-17.269,9.059-28.865,26.148-30.91,45.542l-23.87,226.752l-332.723-634.126c119.09-20.491,231.364-61.116,333.22-118.228
		l309.416,589.732L2557.575,2895.907z"/>
</g>
</svg>
