<!-- icon666.com - MILLIONS vector ICONS FREE --><svg id="Capa_1" enable-background="new 0 0 499.429 499.429" viewBox="0 0 499.429 499.429" xmlns="http://www.w3.org/2000/svg"><g><path d="m109.107 140.402v327.629c.021 17.332 14.066 31.377 31.398 31.398h218.42c17.333-.018 31.38-14.065 31.398-31.398v-327.629c-.018-17.333-14.065-31.38-31.398-31.398h-39.397l24.163-30.983c3.245-4.162 2.502-10.166-1.66-13.412-.834-.65-1.769-1.157-2.769-1.501l-49.69-17.075-32.262-42.466c-3.501-4.204-9.746-4.774-13.95-1.274-.462.385-.889.811-1.274 1.274l-32.233 42.466-49.69 17.075c-4.991 1.716-7.645 7.153-5.929 12.144.344 1 .851 1.935 1.501 2.769l24.168 30.983h-39.397c-17.333.021-31.378 14.066-31.399 31.398zm262.103 327.629c-.009 6.782-5.504 12.277-12.286 12.286h-218.42c-6.782-.009-12.277-5.504-12.286-12.286v-252.548h242.992zm-192.165-391.206 39.758-13.651c1.793-.622 3.361-1.762 4.505-3.276l26.407-34.751 26.412 34.761c1.143 1.513 2.709 2.653 4.499 3.276l39.752 13.651-27.881 35.772c-.033.044-.076.071-.109.115l-2.403 3.112c-1.507 1.953-2.201 4.412-1.939 6.864l3.702 34.314-37.585-19.772c-2.786-1.463-6.114-1.463-8.901 0l-37.595 19.772 3.702-34.314c.266-2.453-.429-4.913-1.938-6.864l-2.403-3.112c-.033-.044-.076-.071-.109-.115zm12.559 51.291-4.822 44.683c-.565 5.247 3.23 9.959 8.478 10.524 1.888.203 3.794-.16 5.474-1.045l48.981-25.784 49.013 25.784c.733.382 1.513.665 2.321.841.257.044.516.075.775.093.445.087.896.142 1.349.164.087 0 .169-.033.257-.038.587-.031 1.171-.117 1.742-.257.306-.066.612-.082.906-.175 4.332-1.359 7.097-5.595 6.596-10.107l-4.822-44.683h51.072c6.782.009 12.277 5.504 12.286 12.286v55.97h-242.991v-55.97c.009-6.782 5.504-12.277 12.286-12.286z"></path><path d="m156.657 259.167h93.058c5.278 0 9.556-4.278 9.556-9.556s-4.278-9.556-9.556-9.556h-93.058c-5.278 0-9.556 4.278-9.556 9.556s4.278 9.556 9.556 9.556z"></path><path d="m156.657 313.772h147.663c5.278 0 9.556-4.278 9.556-9.556s-4.278-9.556-9.556-9.556h-147.663c-5.278 0-9.556 4.278-9.556 9.556s4.278 9.556 9.556 9.556z"></path><path d="m156.657 368.377h147.663c5.278 0 9.556-4.278 9.556-9.556s-4.278-9.556-9.556-9.556h-147.663c-5.278 0-9.556 4.278-9.556 9.556s4.278 9.556 9.556 9.556z"></path></g></svg>