<svg width="25" height="25" viewBox="0 0 25 25" fill="none" xmlns="http://www.w3.org/2000/svg">
<path d="M6.31681 15.8417L4.49661 23.9725C4.42318 24.2983 4.54114 24.6392 4.79347 24.8375C5.04658 25.035 5.38484 25.0542 5.65591 24.8825L12.5008 20.5467L19.3425 24.8825C19.466 24.9608 19.6042 25 19.7417 25C19.905 25 20.0675 24.9458 20.205 24.8383C20.4573 24.64 20.5753 24.2992 20.5018 23.9733L18.6816 15.8425L24.7234 10.3808C24.9648 10.1633 25.0593 9.81167 24.9625 9.49083C24.8664 9.17 24.5977 8.9425 24.2828 8.915L16.3138 8.21333L13.2179 0.505C13.0953 0.198333 12.8125 0 12.5 0C12.1875 0 11.9047 0.198333 11.7821 0.505L8.68384 8.21333L0.71717 8.91417C0.402346 8.94167 0.133614 9.16917 0.0375261 9.49C-0.0593426 9.81083 0.0351823 10.1625 0.276573 10.38L6.31681 15.8417ZM9.28068 9.8325C9.56894 9.8075 9.82049 9.61417 9.93454 9.33L12.5 2.9475L15.0623 9.32917C15.1764 9.61333 15.4279 9.80667 15.7162 9.83167L22.2736 10.4083L17.3044 14.9008C17.0794 15.1033 16.981 15.4242 17.0497 15.73L18.5527 22.4425L12.9 18.86C12.6547 18.7033 12.3477 18.7033 12.1024 18.86L6.44649 22.4433L7.94951 15.73C8.01826 15.4242 7.91983 15.1033 7.69484 14.9008L2.7272 10.4083L9.28068 9.8325Z" fill="url(#paint0_linear_1113_793)"/>
<defs>
<linearGradient id="paint0_linear_1113_793" x1="12.5" y1="0" x2="12.5" y2="25" gradientUnits="userSpaceOnUse">
<stop stop-color="#FF6B00"/>
<stop offset="1" stop-color="#FF6B00"/>
</linearGradient>
</defs>
</svg>
